HIERARCHY
ROOT Hips
{
	OFFSET -0.001795 -0.223333 0.028219
	CHANNELS 6 Xposition Yposition Zposition Zrotation Yrotation Xrotation 
	JOINT LeftUpLeg
	{
		OFFSET 0.069520 -0.091406 -0.006815
		CHANNELS 3 Zrotation Yrotation Xrotation
		JOINT LeftLeg
		{
			OFFSET 0.034277 -0.375199 -0.004496
			CHANNELS 3 Zrotation Yrotation Xrotation
			JOINT LeftFoot
			{
				OFFSET -0.013596 -0.397961 -0.043693
				CHANNELS 3 Zrotation Yrotation Xrotation
				JOINT LeftToe
				{
					OFFSET 0.026358 -0.055791 0.119288
					CHANNELS 3 Zrotation Yrotation Xrotation
					End Site
					{
						OFFSET 0.000000 0.000000 0.000000
					}
				}
			}
		}
	}
	JOINT RightUpLeg
	{
		OFFSET -0.067670 -0.090522 -0.004320
		CHANNELS 3 Zrotation Yrotation Xrotation
		JOINT RightLeg
		{
			OFFSET -0.038290 -0.382569 -0.008850
			CHANNELS 3 Zrotation Yrotation Xrotation
			JOINT RightFoot
			{
				OFFSET 0.015774 -0.398415 -0.042312
				CHANNELS 3 Zrotation Yrotation Xrotation
				JOINT RightToe
				{
					OFFSET -0.025372 -0.048144 0.123348
					CHANNELS 3 Zrotation Yrotation Xrotation
					End Site
					{
						OFFSET 0.000000 0.000000 0.000000
					}
				}
			}
		}
	}
	JOINT Spine
	{
		OFFSET -0.002533 0.108963 -0.026696
		CHANNELS 3 Zrotation Yrotation Xrotation
		JOINT Spine1
		{
			OFFSET 0.005487 0.135180 0.001092
			CHANNELS 3 Zrotation Yrotation Xrotation
			JOINT Spine2
			{
				OFFSET 0.001457 0.052922 0.025425
				CHANNELS 3 Zrotation Yrotation Xrotation
				JOINT Neck
				{
					OFFSET -0.002778 0.213870 -0.042857
					CHANNELS 3 Zrotation Yrotation Xrotation
					JOINT Head
					{
						OFFSET 0.005152 0.064970 0.051349
						CHANNELS 3 Zrotation Yrotation Xrotation
						End Site
						{
							OFFSET 0.000000 0.000000 0.000000
						}
					}
				}
				JOINT LeftShoulder
				{
					OFFSET 0.078845 0.121749 -0.034090
					CHANNELS 3 Zrotation Yrotation Xrotation
					JOINT LeftArm
					{
						OFFSET 0.090977 0.030469 -0.008868
						CHANNELS 3 Zrotation Yrotation Xrotation
						JOINT LeftForeArm
						{
							OFFSET 0.259612 -0.012772 -0.027456
							CHANNELS 3 Zrotation Yrotation Xrotation
							JOINT LeftHand
							{
								OFFSET 0.249234 0.008986 -0.001171
								CHANNELS 3 Zrotation Yrotation Xrotation
								End Site
								{
									OFFSET 0.000000 0.000000 0.000000
								}
							}
						}
					}
				}
				JOINT RightShoulder
				{
					OFFSET -0.081759 0.118833 -0.038615
					CHANNELS 3 Zrotation Yrotation Xrotation
					JOINT RightArm
					{
						OFFSET -0.096012 0.032551 -0.009143
						CHANNELS 3 Zrotation Yrotation Xrotation
						JOINT RightForeArm
						{
							OFFSET -0.253742 -0.013329 -0.021401
							CHANNELS 3 Zrotation Yrotation Xrotation
							JOINT RightHand
							{
								OFFSET -0.255298 0.007772 -0.005559
								CHANNELS 3 Zrotation Yrotation Xrotation
								End Site
								{
									OFFSET 0.000000 0.000000 0.000000
								}
							}
						}
					}
				}
			}
		}
	}
}
MOTION
Frames: 10
Frame Time: 0.050000
-1.567969 0.923333 0.357864 0.807112 2.985808 5.804573 18.746135 1.509028 -32.263491 -13.906424 4.067009 30.759587 8.779725 19.172441 18.859319 0.000000 0.000000 0.000000 -13.413105 -0.129552 -20.590828 11.048966 -2.873693 23.020656 -8.948274 -21.077993 14.530972 0.000000 0.000000 0.000000 -5.002807 -0.395153 47.029428 5.593371 -0.623752 -24.014554 -0.480609 2.956348 27.603402 -10.376872 7.686242 -32.498147 0.000000 0.000000 0.000000 -38.453045 -6.677994 -0.010769 -21.547308 -15.520349 -1.203085 -0.844952 -36.017885 1.571549 0.000000 0.000000 0.000000 17.035469 15.807703 8.619472 34.885960 16.498714 -1.278516 -5.502477 29.640076 -0.095804 0.000000 0.000000 0.000000 
-1.566802 0.935531 0.361404 0.825102 5.526283 5.741649 15.342729 0.257934 -29.881979 -17.432050 5.163812 32.443734 11.555436 22.948568 23.484513 0.000000 0.000000 0.000000 -12.203355 -0.038679 -17.215774 9.432854 -2.316741 19.478599 -9.365070 -21.440970 15.399814 0.000000 0.000000 0.000000 -5.694537 -0.517206 44.032236 6.266060 -0.578940 -26.041081 -0.315579 6.563272 29.526906 -8.335345 7.580374 -31.230985 0.000000 0.000000 0.000000 -39.203354 -6.675104 -2.819211 -23.338274 -11.712728 -1.297887 -4.676410 -33.554345 2.488582 0.000000 0.000000 0.000000 19.265288 14.833885 9.860566 35.718672 14.802151 -2.240753 -3.603558 29.086522 0.476425 0.000000 0.000000 0.000000 
-1.560408 0.941862 0.367414 0.697463 9.748959 5.109537 11.683964 -0.918270 -28.269045 -17.802521 4.657764 34.208539 11.542289 23.286920 23.871244 0.000000 0.000000 0.000000 -10.938337 -0.023202 -12.975306 8.792413 -2.147412 15.777267 -12.629935 -26.126571 17.269850 0.000000 0.000000 0.000000 -5.351151 -1.255463 41.125496 6.208849 -0.498026 -26.009622 -0.717110 7.641404 30.149611 -6.379471 7.122028 -30.514345 0.000000 0.000000 0.000000 -36.397017 -5.271717 -5.180988 -28.647084 -9.027032 -1.658446 -6.881104 -32.399522 2.877614 0.000000 0.000000 0.000000 19.685571 13.642791 10.168218 40.033006 14.396568 -2.581776 -4.569062 26.861927 0.343558 0.000000 0.000000 0.000000 
-1.549207 0.943443 0.376340 -0.068577 12.895732 4.134507 8.677961 -1.428191 -24.148950 -15.638611 3.083569 31.835378 12.061374 24.163918 21.059380 0.000000 0.000000 0.000000 -9.446028 0.033724 -9.655882 8.031951 -2.036984 14.614879 -14.291152 -28.574312 17.373504 0.000000 0.000000 0.000000 -5.450850 -1.509060 38.357438 4.812413 -0.237771 -23.980693 0.871486 8.229173 29.184819 -3.000778 5.690081 -27.789043 0.000000 0.000000 0.000000 -34.860954 -4.269522 -6.808427 -33.200689 -6.086795 -2.278212 -7.254161 -30.117197 2.633493 0.000000 0.000000 0.000000 19.608868 11.972340 9.708217 42.899900 14.764986 -2.385517 -3.476044 26.334311 0.622114 0.000000 0.000000 0.000000 
-1.533508 0.943815 0.386648 -1.349303 14.765735 3.565855 7.229436 -1.415989 -20.444769 -13.314214 1.927921 27.825462 12.489022 24.768022 19.160846 0.000000 0.000000 0.000000 -8.411637 0.076559 -9.809592 8.250078 -2.515242 17.655944 -15.828162 -30.383126 19.146584 0.000000 0.000000 0.000000 -6.502925 -1.196590 35.706844 6.264575 -0.584460 -23.611535 0.635565 9.143930 30.712545 -1.558494 5.285420 -27.889387 0.000000 0.000000 0.000000 -34.193319 -2.735619 -8.769862 -34.856799 -4.274884 -2.727958 -7.361862 -28.626331 2.420334 0.000000 0.000000 0.000000 20.368524 10.772939 9.826722 45.075325 14.698961 -2.648424 -5.335621 27.316172 0.407213 0.000000 0.000000 0.000000 
-1.514720 0.944074 0.396483 -2.399805 18.189875 2.269553 6.086406 -1.213832 -15.724496 -11.685624 1.098071 23.159844 12.364634 24.533432 14.270963 0.000000 0.000000 0.000000 -8.437732 -0.065722 -10.574711 8.486654 -3.739252 24.129000 -15.811240 -29.385600 21.570876 0.000000 0.000000 0.000000 -6.387600 -1.564140 34.453580 6.660246 -0.761049 -21.832099 1.360432 7.800632 29.861882 -2.797322 5.954831 -25.974515 0.000000 0.000000 0.000000 -36.217756 -3.068375 -9.497075 -34.599715 -3.126199 -2.725142 -8.001003 -25.690853 2.343931 0.000000 0.000000 0.000000 20.258006 8.922374 8.797288 46.365810 14.081479 -2.759029 -4.286670 28.266603 0.756106 0.000000 0.000000 0.000000 
-1.495202 0.946656 0.404987 -3.292626 21.496926 0.867728 5.094453 -0.956424 -11.589451 -9.245320 0.361279 20.021261 9.508469 20.161077 9.904677 0.000000 0.000000 0.000000 -9.047047 -0.454742 -15.313995 9.251318 -6.642540 35.056650 -17.014788 -28.897272 28.914361 0.000000 0.000000 0.000000 -7.035626 -1.873944 35.136540 8.534330 -1.049372 -24.117955 0.876058 6.467345 31.398463 -1.880541 5.597859 -26.310647 0.000000 0.000000 0.000000 -37.701408 -1.971907 -10.995230 -33.662457 -2.535380 -2.747024 -9.370570 -25.012522 2.595976 0.000000 0.000000 0.000000 21.925450 7.418432 8.543079 46.626032 14.370941 -3.078642 -6.291200 30.831770 0.571628 0.000000 0.000000 0.000000 
-1.476759 0.950457 0.413356 -4.369528 23.600263 0.529099 5.126507 -0.772214 -8.915296 -8.421874 0.243778 16.348387 8.284387 18.185293 9.162440 0.000000 0.000000 0.000000 -7.426098 -0.573466 -21.659088 8.448175 -7.937380 40.755997 -19.607801 -30.091363 36.327170 0.000000 0.000000 0.000000 -6.945030 -2.062513 34.282538 9.011817 -1.180264 -23.894903 0.687073 5.550017 31.145821 -3.810404 6.638958 -23.802066 0.000000 0.000000 0.000000 -37.176630 -2.160315 -10.915701 -34.488008 -1.893182 -2.916191 -8.440378 -25.616067 2.413875 0.000000 0.000000 0.000000 22.697196 6.405455 8.219575 47.745336 13.698067 -3.332141 -5.921760 32.209024 0.809418 0.000000 0.000000 0.000000 
-1.458756 0.952572 0.422848 -5.355628 26.608502 0.352523 4.633901 -0.667456 -7.058439 -6.605869 -0.073888 14.295385 6.546335 15.004119 7.133890 0.000000 0.000000 0.000000 -5.566579 -0.709432 -26.509984 8.999304 -8.054533 37.900549 -21.776984 -31.154671 39.041113 0.000000 0.000000 0.000000 -5.684340 -2.789185 34.230349 8.712485 -1.037032 -23.972127 -0.073168 3.958634 30.250322 -4.004051 6.685317 -23.130928 0.000000 0.000000 0.000000 -37.125607 -1.839973 -11.180255 -33.527356 -2.543831 -2.609423 -8.002519 -26.311853 2.369693 0.000000 0.000000 0.000000 23.244196 5.374854 7.775930 48.557589 12.956354 -3.624143 -5.181523 32.946718 1.120593 0.000000 0.000000 0.000000 
-1.440581 0.951434 0.434907 -6.014288 30.393147 -0.293005 3.905866 -0.547246 -5.168952 -5.265830 -0.316965 13.170732 5.911448 13.122260 5.191302 0.000000 0.000000 0.000000 -3.930855 -1.067722 -30.639082 9.327239 -6.895452 30.956460 -14.244526 -23.444034 27.931296 0.000000 0.000000 0.000000 -4.962000 -3.880024 36.209402 8.115268 -0.732826 -25.809603 0.134886 3.019034 30.490954 -4.034322 6.822063 -23.437523 0.000000 0.000000 0.000000 -37.422115 -2.120213 -11.656774 -32.027646 -3.319207 -2.118497 -8.305093 -28.409328 2.591339 0.000000 0.000000 0.000000 22.038567 3.754355 6.784702 50.948284 11.829450 -3.934679 -3.770925 33.102457 1.691689 0.000000 0.000000 0.000000 
